<mxfile host="app.diagrams.net" modified="2023-04-22T10:34:57.337Z" agent="Mozilla/5.0 (Windows NT 10.0; Win64; x64) AppleWebKit/537.36 (KHTML, like Gecko) Chrome/112.0.0.0 Safari/537.36" version="21.1.8" etag="nUHaSla9_cQaoMe0h-U_" type="github">
  <diagram name="Page-1" id="lT0toSpqeVj2PgT5Qb9g">
    <mxGraphModel>
      <root>
        <mxCell id="0" />
        <mxCell id="1" parent="0" />
      </root>
    </mxGraphModel>
  </diagram>
</mxfile>
